<?xml version="1.0" encoding="UTF-8"?>
<svg id="a" data-name="Layer 1" xmlns="http://www.w3.org/2000/svg" viewBox="0 0 1330.68 1166.72">
  <g>
    <g>
      <path d="M1079.78,906.02c5.49.52,10.95,2.82,14.54,7.13l122.25,154.71-1.02-161.84h52.14v255.28h-35.55c-5.59,0-12.47-5.77-15.9-9.84l-119.87-151.32,1.35,161.16h-52.82v-254.27l1.02-1.02c10.91.76,23.12-1.02,33.86,0Z"/>
      <path d="M870.05,903.51c91.86-4.76,156.29,70.06,137.4,160.41-28.68,137.19-238.56,132.71-260.31-6.76-12.74-81.66,40.11-149.37,122.91-153.65ZM875.46,952.26c-57.7,1.27-76.93,54.89-67.38,104.89,8.56,44.79,46.03,65.78,89.87,55.73,45.73-10.48,57.64-61.22,49.91-102.06-7.18-37.93-33.64-59.42-72.4-58.57Z"/>
    </g>
    <g>
      <g>
        <path d="M519.4,1161.3h-57.9c-3.86,0-11.67-4.3-14.16-7.51-16.61-24.09-28.48-53.86-44.81-77.76-2.12-3.11-7.51-8.86-11.46-8.86h-20.65v94.12h-59.59v-254.27l2.34-1.05c66.57,2.1,190.33-18.88,183.24,84.37-2.03,29.61-23.4,53.62-50.13,64.3,7.26,4.23,13.48,9.94,18.55,16.65l54.58,90ZM370.42,1025.87h33.52c4.73,0,15.69-4.58,19.79-7.3,19.39-12.84,21.18-48.65.66-61.23-4.55-2.79-15.94-6.64-21.12-6.64h-32.84v75.16Z"/>
        <path d="M290.51,1161.3h-49.77c-6.73,0-13.56-8.17-15.93-13.87-5.59-13.41-9.21-29.19-14.27-42.95l-97.52.33c-5.54,13.4-8.62,28.67-14.13,41.94-2.37,5.72-9.1,14.54-15.93,14.54h-50.45l99.86-255.33h57.63s2.26,1.13,2.26,1.13l98.26,254.2ZM196.39,1063.79l-34.88-104.29-34.2,104.29h69.07Z"/>
      </g>
      <path d="M642.51,903.51c34.54-1.72,70.48,9.02,94.92,34-7.58,8.2-13.22,19.29-20.62,27.43-11.22,12.35-19.66,2.39-30.37-3.51-32.25-17.77-74.49-10.34-92.67,23.36-20.07,37.21-13.72,103.51,27.85,124.06,19.16,9.47,49.83,8.93,68.11-2.38,7.89-4.88,15.78-16.42,26.07-8.5,8.52,6.56,15.84,18.08,24.29,25.17-23.01,32.89-64.74,42.99-103.23,40.9-152.67-8.29-155.2-252.54,5.64-260.53Z"/>
    </g>
  </g>
  <g>
    <path d="M869.51,419.82l-51.12,2.05c-24.44,1.8-48.81,3.87-73.03,7.55-11.65,1.77-23.24,4.59-34.88,5.87l-66.8-136.67-99.58,202.44c-38.38,24.44-75.23,51.63-107.31,83.98l38.14-21.78c180.31-92.75,390.51-129.74,592.65-118.38l9.82,1.34c-106.23,11.98-208.07,41.9-305.87,83.85-62.18,26.67-131.3,59.4-189.61,93.45-110.36,64.46-236.59,193.18-367.6,202.58-5.07.36-10.19-.37-15.23.68L643.67.68l225.84,419.14Z"/>
    <path d="M1024.59,486.19l-18.6,12.88c-32.89,28.71-48.68,78.73-29.6,119.62l111.85,208.1c-18.34-.64-36.25-2.27-54.18-6.42-108.85-25.19-177.91-129.99-287.66-148.44-51.79-8.71-104.32,1.86-152.51,20.79,42.53-39.3,92.34-71.84,143.11-99.65,89.35-48.95,187.45-86.77,287.58-106.86Z"/>
  </g>
</svg>