<svg xmlns="http://www.w3.org/2000/svg" width="108" height="40" viewBox="0 0 108 40" fill="none"><g clip-path="url(#clip0_1_4275)"><path d="M2.38673 4.27612C2.38673 2.9839 2.33926 2.32489 1.44928 1.99539C1.23765 1.90209 1.0735 1.87827 1.0735 1.76115C1.0735 1.66786 1.35434 1.64404 1.5897 1.64404H9.64905C11.874 1.64404 15.788 2.25542 15.788 5.00659C15.788 7.75777 12.8135 8.29769 10.7507 8.48623V8.53391C13.2802 8.58151 17.1922 9.54425 17.1922 12.6964C17.1922 15.4714 14.1939 16.4123 12.0144 16.6465C11.1007 16.7636 10.1178 16.7874 9.50865 16.7874C8.99243 16.7874 7.35288 16.6941 5.29206 16.6941H2.19885C1.73012 16.6941 1.47301 16.7418 1.09724 16.7418C0.581039 16.7418 0.464355 16.6941 0.464355 16.6485C0.464355 16.5076 0.652243 16.5076 0.885616 16.4361C1.86857 16.1542 2.38476 15.4714 2.38476 14.0144V4.27612H2.38673ZM5.10417 8.27387H8.0095C11.3123 8.27387 12.8352 7.0273 12.8352 5.09989C12.8352 3.43052 11.4765 2.2316 8.94697 2.2316H5.10417V8.27387ZM5.10417 13.2582C5.10417 15.5865 5.26832 16.1026 6.76746 16.1026H10.0466C12.4832 16.1026 14.0535 15.0208 14.0535 12.4344C14.0535 9.61373 10.9148 8.86143 9.11115 8.86143H5.10417V13.2582Z" fill="black"></path><path d="M23.2377 8.46292H27.5709C29.2817 8.46292 30.7809 7.66301 31.1091 6.7003C31.1566 6.55936 31.2258 6.48791 31.297 6.48791C31.3683 6.48791 31.39 6.60502 31.39 6.84123V10.7199C31.39 11.1188 31.3662 11.2142 31.297 11.2142C31.2041 11.2142 31.1803 11.0494 31.1091 10.8847C30.4307 9.14383 28.5084 9.05055 26.8688 9.05055H23.2377V14.011C23.2377 15.728 23.8231 16.1031 25.4171 16.1031H28.0654C30.0332 16.1031 32.6577 14.9975 34.1806 13.5406C34.4614 13.2824 34.766 13.0463 34.8135 13.0463C34.8609 13.0463 34.8847 13.0701 34.8847 13.1177C34.8847 13.1654 34.8609 13.2111 34.8372 13.3063L33.8068 16.6926H19.5392C19.0013 16.6926 18.8372 16.6688 18.8372 16.5994C18.8372 16.5299 19.3296 16.387 19.4938 16.246C20.36 15.5632 20.5242 14.9062 20.5242 12.7664V4.7709C20.5242 3.24247 20.4312 2.23211 19.4938 1.9959C19.3296 1.92444 19.0963 1.85497 19.0963 1.78351C19.0963 1.69021 19.1892 1.64258 19.5413 1.64258H32.7784L33.4112 3.85186C33.4805 4.08608 33.6229 4.43941 33.6229 4.72128C33.6229 4.81457 33.5754 4.90985 33.5062 4.90985C33.4132 4.90985 33.2946 4.81656 33.2254 4.69746C32.2424 3.07573 29.7583 2.22814 27.5551 2.22814H23.2456V8.45899L23.2377 8.46292Z" fill="black"></path><path d="M41.1616 9.82617L39.8958 12.2954C39.4746 13.1192 39.0751 14.0125 39.0751 14.9752C39.0751 15.9379 39.7079 16.2456 40.3409 16.4798C40.5287 16.5274 40.598 16.5731 40.598 16.6446C40.598 16.7378 40.4813 16.7616 40.3171 16.7616C40.1529 16.7616 39.3104 16.6902 38.021 16.6902C37.0834 16.6902 36.4743 16.7616 36.1935 16.7616C35.9601 16.7616 35.8889 16.714 35.8889 16.6446C35.8889 16.4798 36.1697 16.3864 36.3339 16.2674C37.2714 15.5151 38.5352 13.5639 39.0513 12.5515L44.7908 1.36021C44.86 1.24309 44.9075 1.17163 44.955 1.17163H45.0024C45.0736 1.17163 45.1428 1.26493 45.1903 1.36021L52.0789 14.2923C52.4764 15.0208 52.9451 15.7036 53.6491 16.2436C53.9062 16.4321 54.1871 16.5254 54.1871 16.6426C54.1871 16.714 54.0704 16.7597 53.8588 16.7597C53.6947 16.7597 52.5931 16.6882 51.2343 16.6882C49.3139 16.6882 48.5407 16.7597 48.4002 16.7597C48.2835 16.7597 48.1668 16.7359 48.1668 16.6882C48.1668 16.5949 48.2835 16.5473 48.4714 16.4996C49.0093 16.3111 49.128 15.8644 49.128 15.2769C49.128 14.8541 48.6356 13.7008 48.0739 12.5972L46.7389 9.82219H41.1636L41.1616 9.82617ZM43.9265 4.34759L41.4662 9.23854H46.4323L43.9265 4.34759Z" fill="black"></path><path d="M59.5253 12.0836C59.5253 15.0234 61.6573 16.5736 64.5152 16.5736C68.4035 16.5736 70.0905 14.7633 70.0905 10.7417V5.82694C70.0905 3.45291 69.4576 2.37109 68.4984 1.87684C68.358 1.80538 68.1938 1.71208 68.1938 1.64261C68.1938 1.57314 68.3106 1.54932 68.3817 1.54932C69.0383 1.54932 69.2718 1.64261 70.3496 1.64261C71.3346 1.64261 72.0129 1.54932 72.27 1.54932C72.4816 1.54932 72.622 1.57314 72.622 1.64261C72.622 1.69025 72.5054 1.78354 72.27 1.94829C71.5679 2.39492 70.6997 3.40527 70.6779 5.82694V10.7179C70.6779 15.2556 68.5696 17.1611 64.0485 17.1611C60.4647 17.1611 56.8099 16.3612 56.8099 12.1055V3.71294C56.8099 2.74824 56.5528 1.97212 55.8032 1.78553C55.6865 1.73789 55.5698 1.66842 55.5698 1.6446C55.5698 1.57314 55.7102 1.5513 55.9219 1.5513C56.2957 1.5513 57.421 1.6446 58.1705 1.6446C58.9202 1.6446 60.0455 1.5513 60.4193 1.5513C60.6309 1.5513 60.7713 1.57512 60.7713 1.6446C60.7713 1.66842 60.6546 1.73789 60.5379 1.78553C59.7884 1.9741 59.5312 2.75023 59.5312 3.71294V12.0836H59.5253Z" fill="black"></path><path d="M80.4037 3.31341C80.4037 2.39635 80.0062 2.2316 78.9521 2.2316C76.6321 2.2316 75.0638 3.54763 74.0097 4.55998C73.8455 4.72472 73.6339 4.95896 73.5884 4.95896C73.5171 4.95896 73.4717 4.8875 73.4717 4.81802C73.4717 4.72472 73.5646 4.51233 73.6359 4.27811L74.3854 1.64404H89.1452L89.8954 4.27811C89.9665 4.51233 90.0595 4.72472 90.0595 4.81802C90.0595 4.88948 90.0118 4.95896 89.9423 4.95896C89.8954 4.95896 89.6852 4.72472 89.5212 4.55998C88.4671 3.54962 86.8965 2.2316 84.5791 2.2316C83.5246 2.2316 83.1271 2.39635 83.1271 3.31341V14.1533C83.1271 15.3046 83.4317 16.2217 84.5331 16.4341C84.7449 16.4579 84.8855 16.5512 84.8855 16.6227C84.8855 16.6703 84.7926 16.7636 84.6972 16.7636C84.5331 16.7636 83.1054 16.6922 81.7684 16.6922C80.4314 16.6922 79.0509 16.7636 78.8868 16.7636C78.7464 16.7636 78.6752 16.716 78.6752 16.6465C78.6752 16.5532 78.8868 16.5532 79.1202 16.4579C80.1981 15.9875 80.4077 15.3066 80.4077 13.1192V3.31341H80.4037Z" fill="black"></path><path d="M100.149 9.35676L103.383 5.00766C104.109 4.06678 104.484 3.17355 104.484 2.86786C104.484 2.18701 104.156 2.02226 103.899 1.90316C103.687 1.80987 103.454 1.71459 103.454 1.64511C103.454 1.57564 103.547 1.55182 103.782 1.55182C103.994 1.55182 104.555 1.64511 105.469 1.64511C106.29 1.64511 107.04 1.55182 107.249 1.55182C107.39 1.55182 107.554 1.57564 107.554 1.69276C107.554 1.76421 107.249 1.90515 106.921 2.13937C106.336 2.56217 105 3.99731 104.555 4.58486L100.572 9.9681V13.8468C100.572 15.6809 100.689 16.1752 101.557 16.5265C101.721 16.5979 101.862 16.5979 101.862 16.6674C101.862 16.7369 101.698 16.7607 101.581 16.7607C101.393 16.7607 100.738 16.6892 99.2152 16.6892C97.6924 16.6892 97.036 16.7607 96.8501 16.7607C96.7329 16.7607 96.5688 16.7369 96.5688 16.6674C96.5688 16.5979 96.7095 16.596 96.8736 16.5265C97.7401 16.1732 97.859 15.6809 97.859 13.8468V10.3433L93.1019 4.08862C92.4456 3.24302 91.9072 2.65547 91.322 2.20686C90.9461 1.90118 90.7134 1.8317 90.7134 1.7126C90.7134 1.61931 90.8775 1.54785 91.0416 1.54785C91.1814 1.54785 92.7754 1.64114 94.0873 1.64114C95.282 1.64114 95.9836 1.54785 96.2431 1.54785C96.3595 1.54785 96.5236 1.57167 96.5236 1.68878C96.5236 1.73642 96.383 1.82972 96.1477 1.90118C95.8672 2.01829 95.4218 2.30015 95.4218 2.72494C95.4218 3.33631 95.7266 3.66582 96.1243 4.18191L100.153 9.35477L100.149 9.35676Z" fill="black"></path><path d="M2.38673 4.4751C2.38673 3.18287 2.33926 2.52386 1.44928 2.19436C1.23765 2.10106 1.0735 2.07725 1.0735 1.96013C1.0735 1.86684 1.35434 1.84302 1.5897 1.84302H9.64905C11.874 1.84302 15.788 2.45439 15.788 5.20557C15.788 7.95675 12.8135 8.49666 10.7507 8.68521V8.73288C13.2802 8.78048 17.1922 9.74322 17.1922 12.8954C17.1922 15.6703 14.1939 16.6113 12.0144 16.8454C11.1007 16.9626 10.1178 16.9864 9.50865 16.9864C8.99243 16.9864 7.35288 16.8931 5.29206 16.8931H2.19885C1.73012 16.8931 1.47301 16.9408 1.09724 16.9408C0.581039 16.9408 0.464355 16.8931 0.464355 16.8474C0.464355 16.7066 0.652243 16.7066 0.885616 16.6351C1.86857 16.3532 2.38476 15.6703 2.38476 14.2134V4.4751H2.38673ZM5.10417 8.47286H8.0095C11.3123 8.47286 12.8352 7.22627 12.8352 5.29886C12.8352 3.6295 11.4765 2.43057 8.94697 2.43057H5.10417V8.47286ZM5.10417 13.4571C5.10417 15.7855 5.26832 16.3016 6.76746 16.3016H10.0466C12.4832 16.3016 14.0535 15.2198 14.0535 12.6334C14.0535 9.81271 10.9148 9.0604 9.11115 9.0604H5.10417V13.4571Z" fill="black"></path><path d="M23.2377 8.6619H27.5709C29.2817 8.6619 30.7809 7.86198 31.1091 6.89927C31.1566 6.75834 31.2258 6.68688 31.297 6.68688C31.3683 6.68688 31.39 6.80399 31.39 7.04021V10.9189C31.39 11.3178 31.3662 11.4131 31.297 11.4131C31.2041 11.4131 31.1803 11.2484 31.1091 11.0836C30.4307 9.3428 28.5084 9.24952 26.8688 9.24952H23.2377V14.2099C23.2377 15.927 23.8231 16.3021 25.4171 16.3021H28.0654C30.0332 16.3021 32.6577 15.1965 34.1806 13.7395C34.4614 13.4814 34.766 13.2453 34.8135 13.2453C34.8609 13.2453 34.8847 13.2691 34.8847 13.3167C34.8847 13.3643 34.8609 13.41 34.8372 13.5053L33.8068 16.8916H19.5392C19.0013 16.8916 18.8372 16.8678 18.8372 16.7983C18.8372 16.7288 19.3296 16.586 19.4938 16.445C20.36 15.7622 20.5242 15.1052 20.5242 12.9653V4.96988C20.5242 3.44144 20.4312 2.43109 19.4938 2.19488C19.3296 2.12342 19.0963 2.05394 19.0963 1.98249C19.0963 1.88919 19.1892 1.84155 19.5413 1.84155H32.7784L33.4112 4.05083C33.4805 4.28505 33.6229 4.63839 33.6229 4.92025C33.6229 5.01354 33.5754 5.10882 33.5062 5.10882C33.4132 5.10882 33.2946 5.01553 33.2254 4.89643C32.2424 3.27471 29.7583 2.42712 27.5551 2.42712H23.2456V8.658L23.2377 8.6619Z" fill="black"></path><path d="M41.1616 10.0251L39.8958 12.4944C39.4746 13.3182 39.0751 14.2114 39.0751 15.1742C39.0751 16.1368 39.7079 16.4445 40.3409 16.6788C40.5287 16.7264 40.598 16.7721 40.598 16.8435C40.598 16.9368 40.4813 16.9606 40.3171 16.9606C40.1529 16.9606 39.3104 16.8891 38.021 16.8891C37.0834 16.8891 36.4743 16.9606 36.1935 16.9606C35.9601 16.9606 35.8889 16.9129 35.8889 16.8435C35.8889 16.6788 36.1697 16.5854 36.3339 16.4664C37.2714 15.714 38.5352 13.7629 39.0513 12.7504L44.7908 1.55918C44.86 1.44206 44.9075 1.37061 44.955 1.37061H45.0024C45.0736 1.37061 45.1428 1.4639 45.1903 1.55918L52.0789 14.4913C52.4764 15.2198 52.9451 15.9026 53.6491 16.4426C53.9062 16.6311 54.1871 16.7244 54.1871 16.8415C54.1871 16.9129 54.0704 16.9586 53.8588 16.9586C53.6947 16.9586 52.5931 16.8872 51.2343 16.8872C49.3139 16.8872 48.5407 16.9586 48.4002 16.9586C48.2835 16.9586 48.1668 16.9348 48.1668 16.8872C48.1668 16.7939 48.2835 16.7463 48.4714 16.6986C49.0093 16.51 49.128 16.0634 49.128 15.4758C49.128 15.053 48.6356 13.8998 48.0739 12.7961L46.7389 10.0212H41.1636L41.1616 10.0251ZM43.9265 4.54657L41.4662 9.43752H46.4323L43.9265 4.54657Z" fill="black"></path><path d="M59.5253 12.2811C59.5253 15.2208 61.6573 16.7711 64.5152 16.7711C68.4035 16.7711 70.0905 14.9608 70.0905 10.9393V6.02445C70.0905 3.65042 69.4576 2.5686 68.4984 2.07435C68.358 2.00288 68.1938 1.90959 68.1938 1.84012C68.1938 1.77064 68.3106 1.74683 68.3817 1.74683C69.0383 1.74683 69.2718 1.84012 70.3496 1.84012C71.3346 1.84012 72.0129 1.74683 72.27 1.74683C72.4816 1.74683 72.622 1.77064 72.622 1.84012C72.622 1.88776 72.5054 1.98105 72.27 2.1458C71.5679 2.59243 70.6997 3.60278 70.6779 6.02445V10.9154C70.6779 15.4531 68.5696 17.3587 64.0485 17.3587C60.4647 17.3587 56.8099 16.5587 56.8099 12.3029V3.91045C56.8099 2.94575 56.5528 2.16963 55.8032 1.98304C55.6865 1.9354 55.5698 1.86592 55.5698 1.84211C55.5698 1.77064 55.7102 1.74881 55.9219 1.74881C56.2957 1.74881 57.421 1.84211 58.1705 1.84211C58.9202 1.84211 60.0455 1.74881 60.4193 1.74881C60.6309 1.74881 60.7713 1.77263 60.7713 1.84211C60.7713 1.86592 60.6546 1.9354 60.5379 1.98304C59.7884 2.17161 59.5312 2.94773 59.5312 3.91045V12.2811H59.5253Z" fill="black"></path><path d="M80.4037 3.51238C80.4037 2.59533 80.0062 2.43057 78.9521 2.43057C76.6321 2.43057 75.0638 3.74661 74.0097 4.75895C73.8455 4.9237 73.6339 5.15793 73.5884 5.15793C73.5171 5.15793 73.4717 5.08647 73.4717 5.017C73.4717 4.9237 73.5646 4.71131 73.6359 4.47709L74.3854 1.84302H89.1452L89.8954 4.47709C89.9665 4.71131 90.0595 4.9237 90.0595 5.017C90.0595 5.08845 90.0118 5.15793 89.9423 5.15793C89.8954 5.15793 89.6852 4.9237 89.5212 4.75895C88.4671 3.7486 86.8965 2.43057 84.5791 2.43057C83.5246 2.43057 83.1271 2.59533 83.1271 3.51238V14.3523C83.1271 15.5036 83.4317 16.4207 84.5331 16.6331C84.7449 16.6569 84.8855 16.7502 84.8855 16.8216C84.8855 16.8693 84.7926 16.9626 84.6972 16.9626C84.5331 16.9626 83.1054 16.8911 81.7684 16.8911C80.4314 16.8911 79.0509 16.9626 78.8868 16.9626C78.7464 16.9626 78.6752 16.9149 78.6752 16.8454C78.6752 16.7522 78.8868 16.7522 79.1202 16.6569C80.1981 16.1865 80.4077 15.5056 80.4077 13.3182V3.51238H80.4037Z" fill="black"></path><path d="M100.149 9.55573L103.383 5.20664C104.109 4.26576 104.484 3.37252 104.484 3.06683C104.484 2.38599 104.156 2.22123 103.899 2.10213C103.687 2.00884 103.454 1.91356 103.454 1.84409C103.454 1.77461 103.547 1.75079 103.782 1.75079C103.994 1.75079 104.555 1.84409 105.469 1.84409C106.29 1.84409 107.04 1.75079 107.249 1.75079C107.39 1.75079 107.554 1.77461 107.554 1.89173C107.554 1.96319 107.249 2.10412 106.921 2.33834C106.336 2.76114 105 4.19629 104.555 4.78384L100.572 10.1671V14.0457C100.572 15.8799 100.689 16.3741 101.557 16.7254C101.721 16.7969 101.862 16.7969 101.862 16.8664C101.862 16.9359 101.698 16.9597 101.581 16.9597C101.393 16.9597 100.738 16.8882 99.2152 16.8882C97.6924 16.8882 97.036 16.9597 96.8501 16.9597C96.7329 16.9597 96.5688 16.9359 96.5688 16.8664C96.5688 16.7969 96.7095 16.7949 96.8736 16.7254C97.7401 16.3721 97.859 15.8799 97.859 14.0457V10.5423L93.1019 4.2876C92.4456 3.442 91.9072 2.85444 91.322 2.40584C90.9461 2.10015 90.7134 2.03067 90.7134 1.91157C90.7134 1.81828 90.8775 1.74683 91.0416 1.74683C91.1814 1.74683 92.7754 1.84012 94.0873 1.84012C95.282 1.84012 95.9836 1.74683 96.2431 1.74683C96.3595 1.74683 96.5236 1.77064 96.5236 1.88776C96.5236 1.9354 96.383 2.02869 96.1477 2.10015C95.8672 2.21726 95.4218 2.49913 95.4218 2.92392C95.4218 3.53529 95.7266 3.8648 96.1243 4.38089L100.153 9.55374L100.149 9.55573Z" fill="black"></path><path d="M2.38673 4.67407C2.38673 3.38185 2.33926 2.72284 1.44928 2.39333C1.23765 2.30004 1.0735 2.27622 1.0735 2.1591C1.0735 2.06581 1.35434 2.04199 1.5897 2.04199H9.64905C11.874 2.04199 15.788 2.65337 15.788 5.40454C15.788 8.15572 12.8135 8.69563 10.7507 8.88418V8.93186C13.2802 8.97945 17.1922 9.9422 17.1922 13.0944C17.1922 15.8693 14.1939 16.8103 12.0144 17.0444C11.1007 17.1616 10.1178 17.1854 9.50865 17.1854C8.99243 17.1854 7.35288 17.0921 5.29206 17.0921H2.19885C1.73012 17.0921 1.47301 17.1398 1.09724 17.1398C0.581039 17.1398 0.464355 17.0921 0.464355 17.0464C0.464355 16.9055 0.652243 16.9055 0.885616 16.8341C1.86857 16.5521 2.38476 15.8693 2.38476 14.4124V4.67407H2.38673ZM5.10417 8.67183H8.0095C11.3123 8.67183 12.8352 7.42525 12.8352 5.49784C12.8352 3.82847 11.4765 2.62955 8.94697 2.62955H5.10417V8.67183ZM5.10417 13.6561C5.10417 15.9845 5.26832 16.5006 6.76746 16.5006H10.0466C12.4832 16.5006 14.0535 15.4188 14.0535 12.8323C14.0535 10.0117 10.9148 9.25938 9.11115 9.25938H5.10417V13.6561Z" fill="black"></path><path d="M23.2377 8.85945H27.5709C29.2817 8.85945 30.7809 8.0595 31.1091 7.09679C31.1566 6.95586 31.2258 6.8844 31.297 6.8844C31.3683 6.8844 31.39 7.00151 31.39 7.23772V11.1164C31.39 11.5154 31.3662 11.6106 31.297 11.6106C31.2041 11.6106 31.1803 11.4459 31.1091 11.2811C30.4307 9.54028 28.5084 9.447 26.8688 9.447H23.2377V14.4075C23.2377 16.1244 23.8231 16.4996 25.4171 16.4996H28.0654C30.0332 16.4996 32.6577 15.394 34.1806 13.937C34.4614 13.679 34.766 13.4427 34.8135 13.4427C34.8609 13.4427 34.8847 13.4665 34.8847 13.5142C34.8847 13.5619 34.8609 13.6075 34.8372 13.7028L33.8068 17.0892H19.5392C19.0013 17.0892 18.8372 17.0654 18.8372 16.9959C18.8372 16.9264 19.3296 16.7835 19.4938 16.6426C20.36 15.9597 20.5242 15.3027 20.5242 13.1629V5.16739C20.5242 3.63895 20.4312 2.62861 19.4938 2.39239C19.3296 2.32093 19.0963 2.25146 19.0963 2.18C19.0963 2.08671 19.1892 2.03906 19.5413 2.03906H32.7784L33.4112 4.24834C33.4805 4.48257 33.6229 4.8359 33.6229 5.11776C33.6229 5.21106 33.5754 5.30634 33.5062 5.30634C33.4132 5.30634 33.2946 5.21304 33.2254 5.09395C32.2424 3.47222 29.7583 2.62464 27.5551 2.62464H23.2456V8.85547L23.2377 8.85945Z" fill="black"></path><path d="M41.1616 10.2241L39.8958 12.6934C39.4746 13.5172 39.0751 14.4104 39.0751 15.3732C39.0751 16.3358 39.7079 16.6435 40.3409 16.8778C40.5287 16.9254 40.598 16.971 40.598 17.0425C40.598 17.1358 40.4813 17.1596 40.3171 17.1596C40.1529 17.1596 39.3104 17.0881 38.021 17.0881C37.0834 17.0881 36.4743 17.1596 36.1935 17.1596C35.9601 17.1596 35.8889 17.1119 35.8889 17.0425C35.8889 16.8778 36.1697 16.7844 36.3339 16.6653C37.2714 15.913 38.5352 13.9618 39.0513 12.9494L44.7908 1.75816C44.86 1.64104 44.9075 1.56958 44.955 1.56958H45.0024C45.0736 1.56958 45.1428 1.66288 45.1903 1.75816L52.0789 14.6903C52.4764 15.4188 52.9451 16.1016 53.6491 16.6415C53.9062 16.8301 54.1871 16.9234 54.1871 17.0405C54.1871 17.1119 54.0704 17.1576 53.8588 17.1576C53.6947 17.1576 52.5931 17.0861 51.2343 17.0861C49.3139 17.0861 48.5407 17.1576 48.4002 17.1576C48.2835 17.1576 48.1668 17.1338 48.1668 17.0861C48.1668 16.9928 48.2835 16.9453 48.4714 16.8976C49.0093 16.709 49.128 16.2624 49.128 15.6748C49.128 15.252 48.6356 14.0987 48.0739 12.9951L46.7389 10.2201H41.1636L41.1616 10.2241ZM43.9265 4.74554L41.4662 9.63649H46.4323L43.9265 4.74554Z" fill="black"></path><path d="M59.5253 12.4815C59.5253 15.4213 61.6573 16.9715 64.5152 16.9715C68.4035 16.9715 70.0905 15.1613 70.0905 11.1397V6.22489C70.0905 3.85086 69.4576 2.76904 68.4984 2.27479C68.358 2.20333 68.1938 2.11003 68.1938 2.04056C68.1938 1.97109 68.3106 1.94727 68.3817 1.94727C69.0383 1.94727 69.2718 2.04056 70.3496 2.04056C71.3346 2.04056 72.0129 1.94727 72.27 1.94727C72.4816 1.94727 72.622 1.97109 72.622 2.04056C72.622 2.0882 72.5054 2.18149 72.27 2.34624C71.5679 2.79287 70.6997 3.80322 70.6779 6.22489V11.1159C70.6779 15.6536 68.5696 17.5591 64.0485 17.5591C60.4647 17.5591 56.8099 16.7592 56.8099 12.5034V4.11089C56.8099 3.14619 56.5528 2.37007 55.8032 2.18348C55.6865 2.13583 55.5698 2.06637 55.5698 2.04255C55.5698 1.97109 55.7102 1.94925 55.9219 1.94925C56.2957 1.94925 57.421 2.04255 58.1705 2.04255C58.9202 2.04255 60.0455 1.94925 60.4193 1.94925C60.6309 1.94925 60.7713 1.97307 60.7713 2.04255C60.7713 2.06637 60.6546 2.13583 60.5379 2.18348C59.7884 2.37205 59.5312 3.14818 59.5312 4.11089V12.4815H59.5253Z" fill="black"></path><path d="M80.4037 3.71136C80.4037 2.7943 80.0062 2.62955 78.9521 2.62955C76.6321 2.62955 75.0638 3.94558 74.0097 4.95793C73.8455 5.12267 73.6339 5.3569 73.5884 5.3569C73.5171 5.3569 73.4717 5.28545 73.4717 5.21597C73.4717 5.12267 73.5646 4.91028 73.6359 4.67606L74.3854 2.04199H89.1452L89.8954 4.67606C89.9665 4.91028 90.0595 5.12267 90.0595 5.21597C90.0595 5.28743 90.0118 5.3569 89.9423 5.3569C89.8954 5.3569 89.6852 5.12267 89.5212 4.95793C88.4671 3.94757 86.8965 2.62955 84.5791 2.62955C83.5246 2.62955 83.1271 2.7943 83.1271 3.71136V14.5513C83.1271 15.7026 83.4317 16.6196 84.5331 16.8321C84.7449 16.8559 84.8855 16.9491 84.8855 17.0206C84.8855 17.0683 84.7926 17.1616 84.6972 17.1616C84.5331 17.1616 83.1054 17.0901 81.7684 17.0901C80.4314 17.0901 79.0509 17.1616 78.8868 17.1616C78.7464 17.1616 78.6752 17.1139 78.6752 17.0444C78.6752 16.9511 78.8868 16.9511 79.1202 16.8559C80.1981 16.3855 80.4077 15.7046 80.4077 13.5171V3.71136H80.4037Z" fill="black"></path><path d="M100.149 9.75471L103.383 5.40561C104.109 4.46473 104.484 3.5715 104.484 3.26581C104.484 2.58496 104.156 2.42021 103.899 2.30111C103.687 2.20782 103.454 2.11254 103.454 2.04306C103.454 1.97359 103.547 1.94976 103.782 1.94976C103.994 1.94976 104.555 2.04306 105.469 2.04306C106.29 2.04306 107.04 1.94976 107.249 1.94976C107.39 1.94976 107.554 1.97359 107.554 2.09071C107.554 2.16216 107.249 2.3031 106.921 2.53732C106.336 2.96012 105 4.39526 104.555 4.98281L100.572 10.3661V14.2447C100.572 16.0788 100.689 16.5731 101.557 16.9244C101.721 16.9959 101.862 16.9959 101.862 17.0654C101.862 17.1349 101.698 17.1587 101.581 17.1587C101.393 17.1587 100.738 17.0872 99.2152 17.0872C97.6924 17.0872 97.036 17.1587 96.8501 17.1587C96.7329 17.1587 96.5688 17.1349 96.5688 17.0654C96.5688 16.9959 96.7095 16.9939 96.8736 16.9244C97.7401 16.5711 97.859 16.0788 97.859 14.2447V10.7412L93.1019 4.48657C92.4456 3.64097 91.9072 3.05342 91.322 2.60481C90.9461 2.29912 90.7134 2.22965 90.7134 2.11055C90.7134 2.01726 90.8775 1.9458 91.0416 1.9458C91.1814 1.9458 92.7754 2.03909 94.0873 2.03909C95.282 2.03909 95.9836 1.9458 96.2431 1.9458C96.3595 1.9458 96.5236 1.96961 96.5236 2.08673C96.5236 2.13437 96.383 2.22767 96.1477 2.29912C95.8672 2.41624 95.4218 2.6981 95.4218 3.12289C95.4218 3.73426 95.7266 4.06377 96.1243 4.57986L100.153 9.75272L100.149 9.75471Z" fill="black"></path><path d="M8.15503 21.6619C13.0697 21.6619 14.2861 21.7651 15.6309 22.2296C17.5198 22.9005 18.5541 24.1391 18.5541 25.6616C18.5541 27.184 17.6483 28.2163 15.9157 28.8872C15.0891 29.2226 14.2346 29.4291 12.7335 29.6097C17.674 30.0742 20.1046 31.5967 20.1046 34.2288C20.1046 35.6996 19.1989 37.0157 17.5691 37.893C16.2757 38.5898 14.3869 38.951 12.0848 38.951H11.3867C10.6628 38.9252 10.6114 38.9252 9.78277 38.9252C8.7741 38.9252 8.61779 38.9252 7.89397 38.8736C7.55776 38.8736 6.47196 38.8478 4.66034 38.7962C3.3926 38.822 3.03067 38.822 0.936219 38.9252L0.392334 38.951V38.5123C1.37528 38.2801 1.84005 37.9446 2.15057 37.2221C2.48678 36.4222 2.61533 35.777 2.69445 33.9965C2.74587 32.9385 2.823 30.4096 2.823 29.2743V25.1971C2.823 23.0295 2.48678 22.3586 1.27046 22.1006V21.6619H8.15108H8.15503ZM8.4398 29.1968C11.8791 29.1968 13.588 28.0357 13.588 25.6616C13.588 24.6036 13.1231 23.7262 12.3459 23.2875C11.5192 22.7972 10.4571 22.6166 8.54269 22.6166H7.40547V29.1968H8.4398ZM7.40547 32.3192C7.40547 35.0287 7.5083 36.2932 7.7674 36.8867C8.05219 37.6092 8.98373 37.9963 10.4057 37.9963C13.2774 37.9963 14.9328 36.5512 14.9328 34.0481C14.9328 32.8095 14.4423 31.7773 13.5365 31.158C12.4507 30.3839 11.2344 30.1516 8.49321 30.1516H7.40744V32.3192H7.40547Z" fill="black"></path><path d="M38.7838 22.7727C41.4221 24.3468 42.949 27.1595 42.949 30.4109C42.949 33.3526 41.3193 36.2427 38.7838 37.7652C37.0256 38.849 34.7492 39.4683 32.6785 39.4683C30.6078 39.4683 28.3077 38.849 26.5474 37.7652C23.9605 36.2169 22.3823 33.3526 22.3823 30.256C22.3823 27.1595 23.9605 24.3468 26.5474 22.7727C28.28 21.7147 30.5821 21.0696 32.6508 21.0696C34.7195 21.0696 36.996 21.6889 38.7818 22.7727H38.7838ZM27.5581 30.2819C27.5581 35.3654 29.524 38.5136 32.6785 38.5136C35.833 38.5136 37.7732 35.3653 37.7732 30.385C37.7732 27.4691 37.3084 25.5079 36.2206 23.9855C35.2892 22.6952 34.1005 22.0243 32.6508 22.0243C29.522 22.0243 27.5561 25.1725 27.5561 30.2819H27.5581Z" fill="black"></path><path d="M61.8529 22.7727C64.4912 24.3468 66.018 27.1595 66.018 30.4109C66.018 33.3526 64.3884 36.2427 61.8529 37.7652C60.0947 38.849 57.8183 39.4683 55.7476 39.4683C53.6769 39.4683 51.3768 38.849 49.6165 37.7652C47.0296 36.2169 45.4514 33.3526 45.4514 30.256C45.4514 27.1595 47.0296 24.3468 49.6165 22.7727C51.3491 21.7147 53.6512 21.0696 55.7199 21.0696C57.7886 21.0696 60.0651 21.6889 61.8509 22.7727H61.8529ZM50.6272 30.2819C50.6272 35.3654 52.5931 38.5136 55.7476 38.5136C58.9021 38.5136 60.8423 35.3653 60.8423 30.385C60.8423 27.4691 60.3775 25.5079 59.2897 23.9855C58.3583 22.6952 57.1696 22.0243 55.7199 22.0243C52.5911 22.0243 50.6252 25.1725 50.6252 30.2819H50.6272Z" fill="black"></path><path d="M80.0424 36.1911C79.7062 35.3912 79.1109 34.101 78.9309 33.7139C77.6632 30.8238 77.1727 30.2045 76.1383 30.2045C75.2839 30.2045 74.9734 30.6947 74.9734 32.114V32.7849C74.9734 37.7652 75.1296 38.1781 77.0936 38.5136V38.9522C75.3868 38.8232 74.3267 38.7974 72.8256 38.7974C71.3244 38.7974 70.2387 38.8232 68.3242 38.9522V38.5136C70.2387 38.0233 70.393 37.3008 70.393 29.3529V25.3274C70.393 22.9017 70.0824 22.2566 68.8404 22.0243V21.5857C70.4444 21.7147 71.3759 21.7405 72.5902 21.7405C73.7274 21.7405 74.7381 21.7147 76.5734 21.5857V22.0243C75.28 22.2566 74.9695 22.9017 74.9695 25.3274V29.4819L77.0639 27.5724C78.2268 26.5144 78.8479 25.895 79.7279 24.8887C80.3747 24.1404 80.608 23.7016 80.608 23.2371C80.608 22.6178 80.1947 22.2566 79.2632 22.0243V21.5857C80.8157 21.7147 81.7473 21.7405 82.9616 21.7405C84.0986 21.7405 85.0815 21.7147 86.8421 21.5857V22.0243C83.8416 23.2888 81.5139 24.8629 77.8412 28.1917L76.6506 29.2497C81.5139 29.5077 82.4711 30.2045 85.2891 35.675C86.1439 37.1976 87.2808 38.3329 88.108 38.5136V38.9522C86.8915 38.849 85.9337 38.7974 84.8228 38.7974C83.7111 38.7974 82.8053 38.8232 81.3299 38.9522L80.0365 36.1911H80.0424Z" fill="black"></path><path d="M105.414 27.3652L105.026 27.2362C104.587 24.088 102.336 21.9978 99.4127 21.9978C97.447 21.9978 95.9199 23.3138 95.9199 25.0428C95.9199 25.8943 96.3854 26.72 97.0828 27.1329C97.6529 27.4684 98.6099 27.778 99.9553 28.0619L102.103 28.5521C105.596 29.3263 107.328 30.952 107.328 33.4809C107.328 37.042 103.965 39.4934 99.077 39.4934C96.1535 39.4934 93.3865 38.8482 89.8167 37.3774L91.5748 32.4228L91.9624 32.5777C92.4279 36.0097 95.2736 38.5386 98.6618 38.5386C101.04 38.5386 102.696 37.171 102.696 35.2356C102.696 33.5583 101.61 32.6035 99.0745 32.0875L97.3164 31.7262C93.3078 30.8746 91.4442 29.2231 91.4442 26.5394C91.4442 23.2106 94.3677 21.043 98.8694 21.043C101.326 21.043 104.818 21.8172 106.992 22.8493L105.414 27.3652Z" fill="black"></path></g><defs><clipPath id="clip0_1_4275"><rect width="108" height="39" fill="black" transform="translate(0 0.5)"></rect></clipPath></defs></svg>
