<svg width="132" height="24" viewBox="0 0 132 24" fill="none" xmlns="http://www.w3.org/2000/svg">
<g clip-path="url(#clip0_2078_99736)">
<path d="M16.674 13.2495C16.394 14.2604 15.7914 15.1523 14.958 15.7893C14.1246 16.4264 13.106 16.7739 12.057 16.779H7.2195V11.9175C7.22984 10.8728 7.57979 9.85987 8.2165 9.03158C8.85321 8.20329 9.74211 7.60463 10.749 7.326V0C7.8164 0.31459 5.10148 1.69529 3.11988 3.87986C1.13828 6.06443 0.0280301 8.90071 0 11.85V24H12.0945C15.0525 23.9837 17.9009 22.8785 20.0958 20.8956C22.2907 18.9126 23.6784 16.1907 23.994 13.2495H16.674Z" fill="#193E61"/>
<path d="M13.08 10.92V0C19.0695 0 24 4.929 24 10.92H13.08Z" fill="#3D8EDB"/>
<path d="M38.118 19.0415C37.2074 19.0567 36.3117 18.8093 35.538 18.329C34.7786 17.8467 34.1581 17.1745 33.738 16.379C33.2986 15.52 33.0694 14.5689 33.0694 13.604C33.0694 12.6391 33.2986 11.688 33.738 10.829C34.1581 10.0335 34.7786 9.36132 35.538 8.87898C36.312 8.39934 37.2075 8.15204 38.118 8.16648C38.8226 8.15592 39.5193 8.31543 40.149 8.63148C40.7334 8.92327 41.2349 9.35765 41.607 9.89448C41.9774 10.4292 42.1858 11.0594 42.207 11.7095V15.4355C42.1875 16.0965 41.9856 16.7391 41.6235 17.2925C41.2625 17.8409 40.7632 18.2843 40.176 18.578C39.5372 18.8955 38.8313 19.0544 38.118 19.0415ZM38.616 16.4285C39.1018 16.4375 39.5804 16.3102 39.9975 16.061C40.3956 15.8218 40.7208 15.4785 40.938 15.068C41.1677 14.6206 41.2826 14.1232 41.2725 13.6205C41.2862 13.1109 41.1733 12.6058 40.944 12.1505C40.7287 11.7417 40.4075 11.3982 40.014 11.156C39.6008 10.9067 39.1254 10.7798 38.643 10.79C38.1547 10.7784 37.6726 10.9014 37.2495 11.1455C36.8535 11.3842 36.532 11.7286 36.321 12.14C36.0915 12.5911 35.9766 13.0919 35.9865 13.598C35.9751 14.1109 36.09 14.6188 36.321 15.077C36.5338 15.4901 36.8594 15.8344 37.26 16.07C37.6711 16.3104 38.1398 16.4343 38.616 16.4285ZM43.95 18.8285H41.094V16.0175L41.568 13.4675L41.0715 10.94V3.20898H43.944L43.95 18.8285Z" fill="#193E61"/>
<path d="M50.754 19.0407C49.8503 19.0538 48.9619 18.8064 48.195 18.3282C47.4369 17.8497 46.8214 17.1762 46.413 16.3782C45.9869 15.5152 45.7653 14.5656 45.7653 13.6032C45.7653 12.6407 45.9869 11.6912 46.413 10.8282C46.8214 10.0302 47.4369 9.35665 48.195 8.87817C48.9695 8.39833 49.8655 8.15103 50.7765 8.16567C51.4651 8.15386 52.1463 8.30823 52.7625 8.61567C53.3376 8.90391 53.8288 9.33523 54.189 9.86817C54.5525 10.413 54.7547 11.0494 54.7725 11.7042V15.4842C54.7514 16.1335 54.5533 16.7647 54.1995 17.3097C53.8456 17.8502 53.3536 18.2863 52.7745 18.5727C52.1478 18.8871 51.4551 19.0476 50.754 19.0407ZM51.294 16.4277C51.6533 16.4413 52.0112 16.3769 52.3432 16.2389C52.6752 16.1009 52.9733 15.8925 53.217 15.6282C53.7129 15.0792 53.9759 14.359 53.9505 13.6197C53.959 13.1091 53.8404 12.6045 53.6055 12.1512C53.3924 11.7385 53.0716 11.3912 52.677 11.1462C52.2581 10.9013 51.7791 10.7781 51.294 10.7907C50.8219 10.779 50.356 10.9002 49.9494 11.1404C49.5428 11.3807 49.212 11.7304 48.9945 12.1497C48.7637 12.5966 48.6482 13.0942 48.6585 13.5972C48.6467 14.107 48.7622 14.6117 48.9945 15.0657C49.2106 15.4764 49.5355 15.8199 49.9335 16.0587C50.3435 16.3066 50.8149 16.4345 51.294 16.4277ZM53.778 18.8277V16.0167L54.2535 13.4667L53.778 10.9392V8.39967H56.628V18.8247L53.778 18.8277Z" fill="#193E61"/>
<path d="M58.185 10.8763V8.3998H65.8965V10.8838L58.185 10.8763ZM60.6255 18.8263V4.0498H63.4545V18.8248L60.6255 18.8263Z" fill="#193E61"/>
<path d="M71.577 19.0407C70.6728 19.054 69.7839 18.8066 69.0165 18.3282C68.2584 17.8497 67.6429 17.1762 67.2345 16.3782C66.8084 15.5152 66.5868 14.5656 66.5868 13.6032C66.5868 12.6407 66.8084 11.6912 67.2345 10.8282C67.6429 10.0302 68.2584 9.35665 69.0165 8.87817C69.7911 8.39849 70.687 8.1512 71.598 8.16567C72.287 8.15386 72.9687 8.30821 73.5855 8.61567C74.16 8.90413 74.6507 9.33543 75.0105 9.86817C75.3773 10.417 75.5798 11.0592 75.594 11.7192V15.4992C75.5743 16.1488 75.376 16.7804 75.021 17.3247C74.6671 17.8652 74.1751 18.3013 73.596 18.5877C72.9686 18.8971 72.2764 19.0524 71.577 19.0407ZM72.117 16.4277C72.476 16.4413 72.8338 16.3769 73.1655 16.2389C73.4972 16.1008 73.7951 15.8925 74.0385 15.6282C74.5349 15.0795 74.7985 14.3592 74.7735 13.6197C74.7822 13.1089 74.6631 12.6041 74.427 12.1512C74.2144 11.7381 73.8934 11.3907 73.4985 11.1462C73.0801 10.9012 72.6016 10.7781 72.117 10.7907C71.6446 10.7787 71.1784 10.8997 70.7715 11.14C70.3646 11.3803 70.0335 11.7302 69.816 12.1497C69.5857 12.5968 69.4707 13.0943 69.4815 13.5972C69.4691 14.1069 69.5841 14.6116 69.816 15.0657C70.0371 15.4823 70.369 15.8297 70.775 16.0698C71.181 16.3099 71.6454 16.4332 72.117 16.4262V16.4277ZM74.601 18.8277V16.0167L75.075 13.4667L74.601 10.9392V8.39967H77.451V18.8247L74.601 18.8277Z" fill="#193E61"/>
<path d="M83.5215 19.0639C82.9272 19.0648 82.3353 18.9887 81.7605 18.8374C81.2081 18.6928 80.6804 18.4669 80.1945 18.1669C79.7322 17.8827 79.3168 17.5285 78.963 17.1169L80.67 15.4099C80.9984 15.8155 81.4213 16.1343 81.9015 16.3384C82.3942 16.5431 82.9235 16.6452 83.457 16.6384C83.8211 16.6592 84.1847 16.5885 84.5145 16.4329C84.6239 16.3826 84.7166 16.3021 84.7817 16.2008C84.8468 16.0995 84.8816 15.9818 84.882 15.8614C84.8856 15.7261 84.851 15.5924 84.7823 15.4757C84.7136 15.3591 84.6136 15.264 84.4935 15.2014C84.1829 15.03 83.8531 14.8961 83.511 14.8024L82.2465 14.4349C81.8064 14.308 81.3825 14.1303 80.9835 13.9054C80.5829 13.6792 80.2451 13.3564 80.001 12.9664C79.7236 12.4964 79.5882 11.9562 79.611 11.4109C79.5981 10.7945 79.7716 10.1885 80.109 9.67242C80.4556 9.1624 80.9436 8.76464 81.513 8.52792C82.1898 8.24669 82.9179 8.11026 83.6505 8.12741C84.4544 8.11791 85.2518 8.27098 85.995 8.57741C86.6842 8.86486 87.2843 9.33087 87.7335 9.92741L86.0265 11.6554C85.7368 11.3014 85.3713 11.0169 84.957 10.8229C84.5604 10.6428 84.1296 10.5507 83.694 10.5529C83.262 10.5529 82.938 10.6179 82.722 10.7479C82.6233 10.7991 82.5407 10.8766 82.4835 10.972C82.4263 11.0673 82.3967 11.1767 82.398 11.2879C82.3946 11.4128 82.4275 11.5359 82.4927 11.6424C82.558 11.7489 82.6527 11.8342 82.7655 11.8879C83.0744 12.0499 83.4004 12.1767 83.7375 12.2659C84.1375 12.3809 84.5585 12.5069 85.0005 12.6439C85.4405 12.7807 85.8613 12.9728 86.253 13.2154C86.6477 13.4601 86.9803 13.7928 87.225 14.1874C87.4946 14.6601 87.6256 15.1992 87.603 15.7429C87.603 16.7659 87.236 17.5759 86.502 18.1729C85.768 18.7699 84.7745 19.0669 83.5215 19.0639Z" fill="#193E61"/>
<path d="M88.5975 10.8763V8.3998H96.3075V10.8838L88.5975 10.8763ZM91.038 18.8263V4.0498H93.867V18.8248L91.038 18.8263Z" fill="#193E61"/>
<path d="M101.994 19.0407C101.09 19.0538 100.202 18.8064 99.435 18.3282C98.6769 17.8497 98.0614 17.1762 97.653 16.3782C97.2269 15.5151 97.0053 14.5656 97.0053 13.6032C97.0053 12.6407 97.2269 11.6912 97.653 10.8282C98.0614 10.0301 98.6769 9.35663 99.435 8.87815C100.21 8.39847 101.106 8.15118 102.017 8.16565C102.706 8.15402 103.387 8.30836 104.004 8.61565C104.579 8.90411 105.069 9.33541 105.429 9.86815C105.793 10.4127 105.995 11.0493 106.012 11.7042V15.4841C105.992 16.1336 105.794 16.765 105.439 17.3097C105.086 17.8502 104.594 18.2863 104.014 18.5727C103.388 18.8873 102.695 19.0477 101.994 19.0407ZM102.535 16.4277C102.895 16.4413 103.252 16.3769 103.584 16.2388C103.916 16.1008 104.214 15.8925 104.457 15.6282C104.953 15.0795 105.217 14.3592 105.192 13.6196C105.201 13.1083 105.081 12.6029 104.844 12.1497C104.631 11.7366 104.31 11.3892 103.916 11.1446C103.497 10.8997 103.019 10.7766 102.534 10.7891C102.061 10.7764 101.593 10.8973 101.186 11.138C100.778 11.3786 100.446 11.7292 100.228 12.1497C99.9982 12.5968 99.8832 13.0943 99.894 13.5972C99.8817 14.1069 99.9966 14.6116 100.228 15.0657C100.449 15.4826 100.781 15.8303 101.187 16.0705C101.593 16.3106 102.058 16.4337 102.53 16.4262L102.535 16.4277ZM105.018 18.8277V16.0167L105.494 13.4667L105.018 10.9391V8.39965H107.868V18.8247L105.018 18.8277Z" fill="#193E61"/>
<path d="M110.327 18.8255V3.20898H113.156V18.8255H110.327ZM116.958 18.8255L112.944 13.448L116.936 8.40048H120.219L115.511 14.1005L115.619 12.7175L120.419 18.83L116.958 18.8255Z" fill="#193E61"/>
<path d="M126.246 19.0632C125.226 19.081 124.218 18.8356 123.32 18.3507C122.483 17.8946 121.785 17.2209 121.299 16.4007C120.82 15.5465 120.567 14.5839 120.566 13.6046C120.564 12.6252 120.813 11.6617 121.289 10.8057C121.762 9.9909 122.444 9.3176 123.266 8.8557C124.122 8.3746 125.091 8.12878 126.074 8.1432C126.995 8.12894 127.904 8.35981 128.708 8.8122C129.475 9.24854 130.104 9.89273 130.523 10.6707C130.964 11.5013 131.187 12.4303 131.171 13.3707C131.171 13.5567 131.171 13.7487 131.15 13.9422C131.131 14.1573 131.095 14.3706 131.042 14.5797L122.25 14.6007V12.4962L129.723 12.4752L128.556 13.3602C128.56 12.8245 128.45 12.2941 128.232 11.8047C128.052 11.4115 127.759 11.0809 127.391 10.8552C126.982 10.627 126.519 10.515 126.051 10.5312C125.537 10.5186 125.03 10.6456 124.583 10.8987C124.164 11.1443 123.829 11.5102 123.621 11.9487C123.397 12.4636 123.283 13.0199 123.287 13.5816C123.29 14.1433 123.412 14.6979 123.644 15.2097C123.867 15.6637 124.225 16.0373 124.67 16.2792C125.147 16.5336 125.682 16.6611 126.224 16.6497C126.718 16.6564 127.21 16.5683 127.671 16.3902C128.108 16.2145 128.494 15.9325 128.795 15.5697L130.479 17.2497C129.965 17.8412 129.322 18.3067 128.6 18.6102C127.853 18.9179 127.053 19.072 126.246 19.0632Z" fill="#193E61"/>
</g>
<defs>
<clipPath id="clip0_2078_99736">
<rect width="131.171" height="24" fill="white"/>
</clipPath>
</defs>
</svg>
