<?xml version="1.0" encoding="UTF-8"?>
<svg id="b" data-name="Layer 1" xmlns="http://www.w3.org/2000/svg" viewBox="0 0 348.17 27.58">
  <defs>
    <style>
      .c {
        fill: #fff;
      }

      .d {
        fill: none;
      }
    </style>
  </defs>
  <g>
    <polygon points="164.86 27.53 164.86 1.3 169.53 1.3 189.3 23.63 190.36 24.48 211.24 1.3 215.92 1.3 215.92 27.53 210.92 27.53 210.6 7.37 193.32 27.53 186.59 27.53 169.97 7.37 169.64 27.53 164.86 27.53"/>
    <path d="M348.17,1.29v26.24h-2.34l-33.35-20.6-.11,20.6h-4.99V1.29s2.76.17,2.76.17c10.67,6.28,20.86,13.47,31.58,19.66.53.3,1.08.78,1.72.77V1.3h4.73Z"/>
    <rect x="139.23" y="1.08" width="5" height="26.45"/>
    <path d="M270.7.71l-5.26-.71h-7.38l-.53.22c-8.34.37-22.6,4.49-21.18,15.25,1.06,8,14.68,11.65,21.27,12.06,2.76.17,5.7-.12,8.48,0,1.15-.36,2.53-.31,3.74-.5,5.94-.92,16.22-4.47,17.27-11.37,1.46-9.59-8.81-13.41-16.41-14.95ZM281.96,14.41c-.72,9.45-16.4,11.22-23.57,10.73-22.36-1.54-22.52-21.02.06-22.7,7.47-.55,24.3,1.4,23.51,11.97Z"/>
    <path d="M97.21,1.5l-4.9-.09-23.69,26.12h5.21c2.34-2.32,4.3-5.14,6.86-7.15l28.55.1,6.52,7.05h5.22L97.21,1.5ZM82.52,17.99l11.96-13.22,12.38,13.22h-24.34Z"/>
    <g>
      <polygon class="c" points="5.26 18.74 4.32 17.34 4.32 17.32 5.26 18.74"/>
      <polygon class="c" points="7.12 7.3 5.34 10.01 4.32 11.56 4.32 11.48 7.12 7.3"/>
      <path d="M37.82,2.66C28.86.47,19.07,1.37,9.68,1.41H0v25.9h30.69c6.66-.28,18.35-2.96,20.06-10.57,1.86-8.27-6.21-12.44-12.93-14.08ZM37.89,23.41c-8.79,3.19-19.01,1.56-28.21,1.91l-4.42-6.58-.94-1.4v-.02l-1.91-2.85-.02-.03v-.02s1.93-2.87,1.93-2.87v-.07l2.8-4.18,2.55-3.8c5.13.08,10.29-.24,15.4-.05,6.73.26,20.47,1.72,20.75,10.74.16,4.9-3.77,7.71-7.93,9.22Z"/>
    </g>
  </g>
  <line class="d" x1="174.22" y1="13.78" x2="174.21" y2="13.8"/>
  <line class="d" x1="175.45" y1="11.92" x2="172.99" y2="15.66"/>
  <line class="d" x1="174.23" y1="13.81" x2="174.21" y2="13.78"/>
  <line class="d" x1="176.38" y1="17.05" x2="172.05" y2="10.53"/>
  <polygon points="174.23 13.8 174.22 13.81 174.2 13.79 174.21 13.77 174.23 13.8"/>
  <polyline class="d" points="176.9 9.77 172.56 16.28 171.54 17.82"/>
  <line class="d" x1="174.58" y1="13.25" x2="173.85" y2="14.33"/>
  <line class="d" x1="176.9" y1="17.79" x2="171.53" y2="9.79"/>
  <line class="d" x1="174.84" y1="14.71" x2="173.6" y2="12.87"/>
</svg>